<?xml version="1.0" standalone="no"?>
<!DOCTYPE svg PUBLIC "-//W3C//DTD SVG 20010904//EN"
 "http://www.w3.org/TR/2001/REC-SVG-20010904/DTD/svg10.dtd">
<svg version="1.0" xmlns="http://www.w3.org/2000/svg"
 width="512.000000pt" height="512.000000pt" viewBox="0 0 512.000000 512.000000"
 preserveAspectRatio="xMidYMid meet">
<metadata>
Created by potrace 1.14, written by Peter Selinger 2001-2017
</metadata>
<g transform="translate(0.000000,512.000000) scale(0.100000,-0.100000)"
fill="#000000" stroke="none">
<path d="M727 4674 c-59 -31 -56 17 -56 -1039 l1 -968 -181 -182 c-239 -241
-237 -210 -26 -425 l156 -157 -284 -285 c-316 -318 -328 -334 -333 -453 -6
-169 119 -310 283 -319 113 -6 180 26 296 143 l87 88 0 -121 c1 -67 1 -193 1
-280 0 -175 7 -204 57 -230 23 -12 345 -14 2176 -14 l2148 0 32 28 31 28 3
2059 c3 1923 2 2060 -14 2091 -12 23 -28 35 -53 41 -50 13 -1697 13 -1738 0
-32 -10 -63 -46 -63 -74 0 -17 0 -17 -148 -19 l-102 -1 -11 33 c-18 53 -86 85
-132 61 -28 -15 -56 -49 -57 -70 0 -23 -11 -25 -135 -23 -130 2 -130 2 -122
10 13 13 -25 66 -56 79 -49 20 -1721 19 -1760 -1z"/>
</g>
</svg>
